<svg width="1177" height="746" viewBox="0 0 1177 746" fill="none" xmlns="http://www.w3.org/2000/svg">
<path d="M310.637 199.506C310.264 196.553 309.508 193.661 308.39 190.902C308.247 190.38 307.997 189.894 307.656 189.474C307.315 189.054 306.891 188.71 306.41 188.463C305.766 188.296 305.092 188.288 304.445 188.441L294.358 189.985C293.513 190.023 292.705 190.337 292.056 190.879C290.742 192.261 292.036 194.485 291.996 196.392C291.95 198.535 290.046 200.275 287.981 200.851C285.873 201.277 283.698 201.25 281.601 200.772L267.496 198.58C271.65 197.253 275.348 194.786 278.167 191.459C280.023 189.26 281.01 185.155 278.328 184.113C277.531 183.895 276.7 183.828 275.878 183.917C269.487 183.966 264.458 178.631 258.476 176.383C254.647 175.038 250.49 174.938 246.601 176.098C242.712 177.257 239.289 179.617 236.821 182.839L244.335 183.201C245.042 183.162 245.743 183.349 246.336 183.735C247.983 185.088 245.936 187.687 246.168 189.805C246.469 192.558 250.124 193.145 252.879 193.424C255.634 193.702 259.129 195.94 257.804 198.372C243.957 203.141 229.867 189.048 215.325 190.783C211.644 191.222 208.169 192.668 204.575 193.577C182.625 199.131 159.932 184.313 137.508 187.451C132.523 188.301 127.623 189.593 122.867 191.312C119.815 192.314 116.632 193.397 114.414 195.721C112.197 198.045 111.353 202.02 113.454 204.45C107.663 204.927 101.835 204.373 96.2379 202.813C97.7514 203.655 99.0104 204.888 99.8829 206.384C100.755 207.879 101.209 209.582 101.197 211.314C92.1559 212.788 83.3545 215.472 75.0293 219.292C76.5831 221.876 78.398 224.294 80.4453 226.507L69 233.86C72.8668 234.834 74.866 240.107 72.6173 243.4C76.6267 241.617 79.1116 237.002 83.399 236.067C86.2078 235.454 89.0658 236.603 91.7304 237.682C94.395 238.762 97.3237 239.808 100.082 238.998C102.841 238.188 104.875 234.612 103.122 232.333C114.913 228.893 127.097 226.989 139.375 226.669C140.322 226.55 141.283 226.732 142.121 227.19C143.719 228.299 143.298 230.694 143.212 232.637C143.126 234.58 144.641 237.134 146.378 236.258C144.334 238.03 146.081 241.366 148.041 243.229C150.002 245.093 152.365 247.664 151.165 250.087C150.851 250.72 150.32 251.226 150.019 251.864C149.129 253.749 150.542 255.945 152.208 257.196C153.874 258.448 155.915 259.322 157.072 261.055C158.229 262.788 157.704 265.82 155.634 266.062L149.752 258.594C147.742 260.678 146.364 263.289 145.778 266.124C152.016 271.223 152.954 281.602 147.732 287.737C145.063 290.872 141.268 292.778 137.956 295.223C134.644 297.669 131.579 301.151 131.587 305.268C131.602 312.381 131.02 318.989 133.686 325.584C138.601 337.744 144.276 349.584 150.676 361.032C152.357 364.038 154.529 367.333 157.934 367.85C153.631 357.374 149.757 346.735 146.313 335.933C148.556 335.942 151.149 336.12 152.464 337.937C153.553 339.442 153.319 341.489 153.657 343.315C154.088 345.085 154.805 346.772 155.782 348.31L176.331 384.914C178.035 387.949 179.989 391.206 183.245 392.435C185.326 393.221 187.735 393.073 189.65 394.204C191.152 395.09 192.164 396.664 193.695 397.499C198.024 399.861 204.043 395.332 208.089 398.151C209.245 398.958 209.981 400.238 211.047 401.161C214.783 404.397 220.912 402.232 225.226 404.646C228.005 406.202 229.446 409.313 230.929 412.132C234.643 419.194 240.652 426.113 248.611 426.675C251.111 426.852 253.665 426.378 256.109 426.934C258.553 427.49 260.959 429.623 260.566 432.098C259.894 436.342 261.991 440.99 261.428 445.249C260.402 453.009 249.396 456.419 248.45 464.189C248.243 465.89 248.567 467.646 248.162 469.311C247.666 471.352 246.133 473.013 245.588 475.042C244.556 478.886 247.31 482.712 250.336 485.298C253.362 487.884 256.971 490.114 258.625 493.735C260.373 497.561 259.514 502.023 260.083 506.192C261.324 515.292 269.185 522.039 277.274 526.389C279.738 527.714 282.385 528.997 283.98 531.296C286.062 534.297 285.855 538.253 286.55 541.839C288.253 550.62 295.645 557.856 295.855 566.799C296.004 573.155 292.471 578.921 290.36 584.918C288.382 590.665 287.666 596.77 288.261 602.818C288.857 608.866 290.75 614.714 293.811 619.964C295.39 622.63 297.278 625.144 298.395 628.034C300.388 633.191 299.742 639.054 301.579 644.269C304.009 651.164 310.685 656.859 310.046 664.141C313.077 670.435 319.77 673.527 326.5 675.401L338.561 678.758C340.871 679.401 343.284 680.049 345.636 679.584C347.987 679.118 350.232 677.165 350.171 674.769C344.256 673.435 338.152 672.016 333.276 668.412C328.4 664.808 325.06 658.389 326.91 652.615C327.768 649.938 329.593 646.846 327.858 644.633C326.864 643.367 325.048 643.036 323.927 641.88C322.179 640.077 322.78 637.049 324.036 634.875C325.293 632.701 327.109 630.759 327.616 628.299C327.872 626.924 327.701 625.503 327.126 624.227C326.551 622.951 325.6 621.881 324.4 621.162C326.636 620.317 328.67 619.012 330.37 617.331C331.94 615.538 332.665 612.774 331.43 610.736C335.098 611.201 339.427 611.429 341.835 608.623C343.758 606.383 343.625 603.034 342.866 600.181C342.106 597.328 340.822 594.557 340.782 591.605C349.243 592.006 357.721 591.719 366.135 590.746C364.919 586.648 362.154 583.186 358.427 581.092C362.238 580.447 365.709 575.885 366.913 572.213C368.117 568.541 367.81 564.54 367.066 560.748C366.78 559.771 366.741 558.739 366.952 557.744C367.381 556.377 368.724 555.542 369.967 554.828L388.882 543.966C390.01 543.4 391.033 542.645 391.906 541.733C393.888 539.405 393.594 535.891 392.58 533.008C391.565 530.124 389.94 527.412 389.549 524.38C388.38 515.313 398.086 508.807 401.362 500.271C402.648 496.922 402.91 493.281 403.159 489.701C403.426 485.857 403.446 481.392 400.494 478.914C397.664 476.54 393.243 477.069 390.283 474.86C387.568 472.835 386.632 468.902 383.666 467.266C380.973 465.781 377.597 466.726 374.601 466.027C369.328 464.797 366.009 458.719 360.623 458.156C357.584 457.839 354.145 459.324 351.654 457.554C349.46 455.995 349.372 452.861 348.954 450.201C348.222 446.068 346.241 442.258 343.277 439.285C340.314 436.312 336.511 434.318 332.379 433.573C329.246 433.07 325.836 433.261 323.17 431.539C320.471 429.796 319.234 426.532 317.114 424.117C313.697 420.226 308.315 418.843 303.274 417.658L282.769 412.837C279.129 411.982 274.436 411.528 272.483 414.717C271.905 415.931 271.495 417.218 271.266 418.543C270.534 420.94 269.061 423.043 267.059 424.551C265.057 426.058 262.628 426.891 260.122 426.931C258.404 424 255.619 421.846 252.35 420.918C250.271 420.339 248.046 420.274 246.062 419.422C244.982 418.895 244.021 418.153 243.238 417.241C242.455 416.33 241.866 415.268 241.507 414.121C241.148 412.974 241.027 411.766 241.152 410.57C241.276 409.375 241.643 408.218 242.23 407.169C243.412 405.064 243.869 402.629 243.529 400.239C243.19 397.848 242.073 395.636 240.351 393.944C236.864 390.813 231.82 390.057 227.144 390.37C225.919 387.698 227.967 384.683 230.173 382.741C232.38 380.799 235.059 378.89 235.54 375.99C236.296 371.429 230.475 367.964 226.056 369.325C221.637 370.685 218.817 374.977 216.952 379.208C215.883 381.636 214.973 384.192 213.286 386.239C211.598 388.286 208.881 389.752 206.311 389.095C202.672 388.165 201.267 383.842 200.461 380.173C199.381 375.251 198.294 370.261 198.52 365.228C198.747 360.194 200.444 355.025 204.156 351.617C210.204 346.064 219.484 346.608 227.647 347.494C225.718 345.321 226.195 341.659 228.259 339.614C229.348 338.646 230.657 337.958 232.072 337.611C233.487 337.263 234.966 337.266 236.379 337.619C238.839 338.131 241.055 339.456 242.671 341.38C244.99 344.209 245.65 348.027 247.403 351.238C249.157 354.448 253.1 357.186 256.327 355.464C259.114 353.976 259.557 350.111 258.863 347.029C258.169 343.946 256.696 340.949 256.947 337.799C257.426 331.79 263.656 328.172 269.153 325.697C274.651 323.222 280.945 319.894 281.816 313.928C281.846 312.76 282.066 311.605 282.469 310.508C283.078 309.539 283.925 308.742 284.93 308.193C300.974 297.59 317.285 286.858 335.622 281.065C336.576 280.763 336.688 281.098 337.66 280.862C339.021 280.076 338.12 277.9 336.815 277.023C335.51 276.147 333.766 275.475 333.435 273.939C333.192 272.809 333.858 271.7 334.03 270.558C334.455 267.751 331.097 265.159 328.489 266.281C327.016 264.331 329.931 262.064 332.288 261.415C339.365 259.467 346.629 258.281 353.958 257.875C354.804 257.741 355.67 257.888 356.424 258.294C357.655 259.147 357.498 261.103 356.625 262.32C355.753 263.537 354.396 264.301 353.309 265.331C352.121 266.488 351.274 267.949 350.86 269.555C350.446 271.16 350.481 272.849 350.961 274.436C354.787 276.382 358.946 278.385 363.184 277.7C367.421 277.014 371.182 272.253 369.191 268.451C367.336 264.91 361.764 264.111 360.806 260.23C359.685 255.686 366.117 251.645 364.668 247.195C364.033 245.245 362.09 244.098 360.6 242.691C358.839 240.965 357.642 238.748 357.164 236.329C356.687 233.911 356.952 231.404 357.925 229.139C355.497 229.566 353.002 229.405 350.649 228.669C348.296 227.932 346.154 226.643 344.403 224.908C341.168 221.643 338.588 216.494 333.995 216.64C329.78 216.774 326.149 221.691 322.208 220.191C321.239 219.822 320.216 219.071 319.277 219.511C318.969 219.711 318.711 219.978 318.521 220.293C318.332 220.607 318.216 220.96 318.184 221.326C317.182 226.114 318.905 231.57 316.295 235.708C313.455 240.211 306.886 240.835 303.444 244.895C301.575 247.099 300.851 250.069 299.133 252.393C297.415 254.717 293.769 256.194 291.707 254.169C292.72 252.086 292.997 249.721 292.492 247.461C291.987 245.2 290.73 243.178 288.927 241.724C287.013 240.475 284.95 239.472 282.786 238.737C280.368 237.713 278.067 236.431 275.925 234.913C274.852 234.266 273.98 233.333 273.406 232.218C272.953 230.823 273.014 229.311 273.578 227.957C274.624 224.959 276.468 222.305 278.912 220.279C281.356 218.254 284.307 216.934 287.446 216.463C290.19 216.089 293.385 216.221 295.202 214.13C296.163 213.023 296.667 211.35 298.062 210.9C298.955 210.721 299.881 210.835 300.703 211.226L310.949 214.832C312.092 215.348 313.35 215.556 314.598 215.435C315.217 215.352 315.782 215.038 316.179 214.555C316.576 214.073 316.775 213.459 316.738 212.835C316.411 211.134 313.793 210.317 314.031 208.601C314.164 208.045 314.463 207.542 314.888 207.16C318.586 203.224 323.108 200.155 328.13 198.172C333.152 196.188 338.551 195.34 343.94 195.687C345.233 197.811 343.188 200.326 341.486 202.139C339.784 203.952 338.417 207.192 340.475 208.587C341.318 209.018 342.256 209.229 343.203 209.202C345.725 209.543 348.176 210.287 350.463 211.404C354.004 212.945 357.476 214.63 360.881 216.461C360.58 214.216 360.293 211.852 361.144 209.753C361.995 207.654 364.413 206.008 366.525 206.825C368.56 207.613 369.604 210.308 371.773 210.555C374.666 210.884 375.807 206.611 374.599 203.962C373.39 201.313 370.998 199.095 370.798 196.19C370.664 194.231 371.409 191.8 369.844 190.614C369.287 190.258 368.655 190.036 367.997 189.966L328.914 182.774C326.593 182.347 323.239 182.674 323.136 185.032C323.079 186.348 324.255 187.65 323.734 188.86C323.178 190.151 321.353 190.033 320.023 190.49C317.96 191.199 316.925 193.648 317.123 195.821C317.486 197.979 318.322 200.031 319.571 201.828C317.029 200.765 313.179 200.57 310.637 199.506Z" fill="white"/>
<path d="M279.452 166.329C276.988 165.513 274.332 165.475 271.845 166.22C269.358 166.965 267.16 168.457 265.55 170.493C264.906 171.34 264.366 172.508 264.904 173.426C265.677 174.741 267.645 174.221 269.096 173.751C271.229 172.989 273.55 172.933 275.717 173.593C277.079 174.061 278.298 174.887 279.667 175.338C280.333 175.616 281.062 175.708 281.777 175.604C282.491 175.499 283.164 175.203 283.722 174.745C284.662 173.787 284.72 172.298 284.722 170.956C284.787 170.508 284.751 170.05 284.617 169.617C284.483 169.183 284.253 168.786 283.946 168.452C283.398 168.135 282.782 167.953 282.15 167.921C280.734 167.659 279.454 166.911 278.531 165.806" fill="white"/>
<path d="M293.545 162.405C292.993 162.375 292.443 162.488 291.948 162.732C291.452 162.976 291.028 163.343 290.715 163.798C290.403 164.254 290.213 164.782 290.163 165.332C290.114 165.882 290.207 166.436 290.433 166.94C292.127 167.402 293.897 167.517 295.636 167.279C296.504 167.144 297.312 166.756 297.959 166.162C298.607 165.569 299.064 164.797 299.273 163.945C297.225 164.317 295.112 163.914 293.345 162.813" fill="white"/>
<path d="M340.828 155.852C336.218 156.832 331.739 158.354 327.486 160.385C329.491 161.155 331.196 162.55 332.348 164.362C333.501 166.175 334.041 168.31 333.889 170.453C333.709 171.276 333.729 172.129 333.949 172.942C334.439 174.13 335.859 174.576 337.108 174.881C339.35 175.563 341.692 175.862 344.035 175.765C345.206 175.704 346.344 175.351 347.345 174.739C348.346 174.128 349.179 173.276 349.768 172.261C350.108 171.298 350.506 170.357 350.961 169.443C353.953 164.886 362.842 170.396 366.054 165.991C367.186 164.44 367.083 162.104 368.558 160.875C369.321 160.339 370.205 160.002 371.131 159.893C377.592 158.609 384.118 157.68 390.68 157.109C393.789 156.838 397.842 155.722 397.868 152.601C386.156 150.301 374.013 151.934 363.326 157.248C359.476 159.176 354.383 163.233 350.674 160.676C349.286 159.719 349.354 157.141 347.443 156.064C345.489 154.964 342.902 155.412 340.828 155.852Z" fill="white"/>
<path d="M379.127 163.014L384.625 164.071C383.613 164.026 382.603 164.197 381.662 164.574C380.722 164.95 379.873 165.523 379.171 166.253C378.47 166.984 377.932 167.856 377.594 168.811C377.256 169.765 377.125 170.781 377.211 171.791C382.359 173.51 387.972 171.837 393.395 172.066C398.818 172.294 405.128 176.168 404.202 181.516C403.922 183.133 402.988 184.749 403.474 186.317C403.814 187.416 404.783 188.195 405.33 189.207C406.47 191.316 405.559 193.983 404.12 195.9C402.68 197.817 400.746 199.346 399.483 201.383C396.341 206.45 398.126 213 399.998 218.66C400.539 220.799 401.538 222.795 402.926 224.509C405.699 227.457 410.218 227.714 414.265 227.773C417.21 227.816 420.584 227.67 422.447 225.388C424.879 222.409 423.178 217.76 424.779 214.264C426.234 211.088 429.938 209.725 433.295 208.759C439.444 206.989 445.71 205.484 451.524 202.81C458.742 199.49 465.489 194.315 473.423 193.888C475.649 193.768 477.93 194.031 480.074 193.421C482.218 192.811 484.255 190.957 484.093 188.734C483.954 186.834 482.347 185.439 481.091 184.007C479.835 182.575 478.849 180.373 480.003 178.858L500.8 174.974C499.326 170.956 498.177 165.665 501.565 163.05C502.787 162.107 504.423 161.73 505.464 160.589C507.237 158.645 506.346 155.296 504.298 153.643C502.251 151.989 499.483 151.606 496.86 151.388C487.741 150.63 478.57 151.131 469.433 151.632C451.574 152.611 433.714 153.59 415.854 154.569C412.259 154.766 408.108 154.465 404.81 155.691C402.018 156.73 400.034 158.636 396.841 159.305C390.947 160.542 384.461 159.705 379.127 163.014Z" fill="white"/>
<path d="M477.612 206.468C477.052 206.379 476.479 206.509 476.012 206.83C475.703 207.171 475.519 207.606 475.491 208.064C475.136 210.088 475.559 212.171 476.674 213.897C477.243 214.743 478.027 215.422 478.947 215.863C479.866 216.303 480.886 216.49 481.902 216.403C484.378 216.087 486.202 213.976 488.478 212.945C491.985 211.358 506.88 208.885 496.577 203.318C493.026 201.4 490.731 203.093 487.932 204.356C484.748 205.985 481.18 206.715 477.612 206.468V206.468Z" fill="white"/>
<path d="M567.862 159.872C566.658 160.363 565.652 161.239 564.999 162.363C564.698 162.934 564.629 163.598 564.804 164.219C564.98 164.84 565.387 165.37 565.942 165.698C566.391 165.861 566.868 165.937 567.345 165.921L572.238 166.067C574.316 166.129 576.912 166.572 577.47 168.575C577.885 170.062 576.957 171.973 578.077 173.035C578.557 173.408 579.135 173.633 579.741 173.685C581.353 174.099 583.036 174.153 584.67 173.844C588.23 172.889 586.36 170.716 587.481 168.782C589.196 165.822 588.899 167.614 591.921 165.917C594.154 164.665 597.038 162.392 595.175 159.199C591.935 153.647 572.642 157.486 567.862 159.872Z" fill="white"/>
<path d="M664.42 157.08L661.58 157.459C655.174 158.314 648.732 159.177 642.562 161.1C645.233 162.156 648.035 162.844 650.891 163.144C652.463 163.221 654.025 163.443 655.556 163.807C658.281 164.619 661.027 166.713 663.66 165.64C665.292 164.975 665.825 163.275 667.177 162.374C668.111 161.752 671.652 160.746 672.048 160.118C675.249 155.043 666.881 156.752 664.42 157.08Z" fill="white"/>
<path d="M676.894 169.991C673.1 172.113 669.579 174.691 666.411 177.668C665.077 178.923 663.713 180.484 663.834 182.311C663.995 184.741 666.583 186.15 668.825 187.099L677.906 190.944C679.008 189.391 678 187.248 676.861 185.722C675.723 184.196 674.369 182.431 674.873 180.594C675.447 178.499 678.002 177.785 680.144 177.424C683.635 176.836 693.051 176.883 691.92 171.257C690.587 164.628 680.399 168.033 676.894 169.991Z" fill="white"/>
<path d="M675.068 545.118C674.204 547.621 674.122 550.57 675.617 552.755C677.295 555.207 680.654 556.121 683.559 555.499C686.452 554.729 689.031 553.071 690.933 550.758C692.671 548.821 694.102 546.627 695.174 544.254C696.67 540.557 697.725 536.696 698.317 532.752L701.137 517.948C701.767 514.639 701.743 504.496 695.662 507.801C694 508.704 690.154 515.832 688.413 517.853C685.275 521.497 684.86 525.032 683.208 529.445C681.139 534.974 676.981 539.581 675.068 545.118Z" fill="white"/>
<path d="M996.25 620.876C994.26 620.099 992.329 619.18 990.472 618.125C988.609 623.245 987.619 628.642 987.543 634.09L1001.16 626.385C1003.21 625.226 1005.53 623.615 1005.48 621.262C1005.5 620.972 1005.44 620.682 1005.31 620.422C1005.18 620.163 1004.98 619.944 1004.73 619.789C1004.43 619.667 1004.1 619.629 1003.78 619.677C1001.76 619.845 999.917 620.839 998.012 621.529C996.108 622.22 993.881 622.585 992.133 621.56" fill="white"/>
<path d="M1068.08 625.45C1066.58 625.857 1065.12 626.381 1063.71 627.017C1060.59 628.607 1058.46 631.626 1055.65 633.72C1052.96 635.724 1049.72 636.824 1046.54 637.894C1045.6 638.721 1046.03 640.386 1047.05 641.112C1048.14 641.733 1049.39 642.015 1050.64 641.92C1053.95 641.993 1057.43 642.025 1060.32 640.43C1061.95 639.372 1063.48 638.161 1064.88 636.814C1068.26 633.991 1072.32 632.128 1076.35 630.329C1077.81 629.776 1079.16 628.967 1080.34 627.939C1082.87 625.449 1083.05 621.608 1079.4 620.761C1076.46 620.076 1070.88 624.543 1068.08 625.45Z" fill="white"/>
<path d="M1099.81 604.719C1099.98 603.006 1099.75 601.278 1099.15 599.666C1098.54 598.054 1097.58 596.599 1096.34 595.413C1096.3 598.84 1096.2 602.492 1094.27 605.326C1092.9 607.346 1090.74 608.71 1089.24 610.634C1087.73 612.558 1087.06 615.607 1088.83 617.295C1089.96 618.153 1091.33 618.627 1092.75 618.645C1096.26 619.059 1100.33 619.289 1102.79 616.751C1104.14 615.365 1104.79 613.313 1106.43 612.294C1107.05 612.038 1107.59 611.647 1108.03 611.151C1108.71 610.075 1107.63 608.655 1106.42 608.267C1105.21 607.879 1103.87 608.062 1102.66 607.693C1101.44 607.325 1100.32 605.956 1100.95 604.847" fill="white"/>
<path d="M1043.41 479.048C1041.56 479.497 1039.66 479.609 1037.77 479.381C1034.64 478.806 1032.21 476.448 1029.68 474.515C1023.68 469.944 1016.38 467.394 1008.84 467.231C1001.98 467.102 995.049 468.961 988.309 467.664C988.75 470.113 990.845 471.95 993.082 473.042C995.318 474.134 997.786 474.683 1000.03 475.753C1003.63 477.483 1006.49 480.452 1008.07 484.117C1008.8 485.806 1009.25 487.644 1010.35 489.119C1012.59 492.134 1016.83 492.796 1020.58 492.549C1025.47 492.228 1030.57 490.822 1035.12 492.643C1038.6 494.036 1041.09 497.08 1043.99 499.447C1046.89 501.814 1050.98 503.57 1054.32 501.863C1050.86 500.741 1047.84 498.542 1045.72 495.587C1043.59 492.631 1042.47 489.073 1042.51 485.433C1045.78 485.734 1055.2 485.617 1054.69 480.06C1054.26 475.351 1046.22 478.54 1043.41 479.048Z" fill="white"/>
<path d="M1000.62 517.365C1001.21 514.181 1004.38 511.368 1003.39 508.286C1002.71 506.154 1000.24 505.102 997.998 505.049C995.76 504.996 993.561 505.663 991.323 505.726C989.867 505.649 988.407 505.669 986.953 505.788C982.51 506.518 979.772 511.175 975.585 512.83C973.04 513.837 970.18 513.644 967.532 514.34C961.522 515.92 957.72 521.599 953.519 526.178C946.731 533.543 937.887 538.7 928.135 540.982C924.717 541.773 921.044 542.279 918.328 544.498C914.731 547.437 913.846 552.475 913.046 557.051C910.835 569.687 907.456 582.09 902.953 594.102L917.223 595.924C919.936 596.27 922.747 596.609 925.362 595.805C927.261 595.089 929.061 594.13 930.715 592.954C937.071 589.008 944.184 586.44 951.595 585.417C955.332 584.904 959.25 584.81 962.756 586.199C966.263 587.588 969.272 590.738 969.566 594.499C971.082 594.027 972.699 593.976 974.242 594.351C975.785 594.727 977.198 595.514 978.328 596.63C980.563 598.907 982.026 601.828 982.511 604.981C982.887 606.933 983.263 609.272 985.075 610.091C986.553 610.76 988.248 610.04 989.865 609.911C995.352 609.472 999.904 615.869 1005.3 614.767C1011.08 613.586 1012.5 604.924 1018.14 603.189C1021.38 602.193 1025.93 603.404 1027.48 600.39C1028.85 597.733 1026.12 594.667 1026.4 591.692C1026.75 588.029 1031.07 586.474 1034.4 584.911C1045.88 579.523 1051.33 564.066 1045.77 552.667C1042.47 545.913 1035.98 540.596 1034.79 533.176C1033.86 527.467 1036.11 520.81 1032.47 516.317C1030.62 514.031 1027.49 512.769 1026.39 510.041C1025.69 508.324 1025.97 506.376 1025.6 504.563C1025.22 502.749 1023.64 500.852 1021.85 501.322C1016.65 502.687 1014.99 518.747 1012.21 522.649C1007.98 528.581 999.293 524.674 1000.62 517.365Z" fill="white"/>
<path d="M904.531 485.116C902.754 484.618 900.814 484.128 899.112 484.839C897.41 485.551 896.415 488.051 897.782 489.291C908.47 488.874 919.224 488.461 929.822 489.913C942.032 491.585 954.116 495.728 966.379 494.509C959.374 492.442 952.253 490.79 945.053 489.56L933.047 487.267C929.827 486.592 926.572 486.089 923.298 485.76C916.449 485.195 911.265 487.005 904.531 485.116Z" fill="white"/>
<path d="M915.231 447.891C914.344 447.816 913.245 447.753 912.786 448.516C912.347 449.244 912.849 450.208 912.613 451.025C912.291 452.142 910.829 452.427 909.676 452.275C908.524 452.123 907.278 451.759 906.257 452.314C905.739 452.668 905.35 453.18 905.148 453.773C904.946 454.367 904.942 455.01 905.137 455.606C905.554 456.79 906.229 457.866 907.113 458.757C908.623 460.659 910.343 462.384 912.241 463.9C915.914 466.611 920.891 467.918 923.205 471.855C923.531 472.617 924.033 473.293 924.669 473.825C925.78 474.529 927.228 473.994 928.424 473.447L932.616 471.532C933.371 471.26 934.046 470.801 934.576 470.199C935.534 468.9 934.946 467.052 934.142 465.652C933.338 464.252 932.309 462.803 932.481 461.198C932.789 458.337 936.468 457.242 937.981 454.794C939.506 452.326 938.514 449.146 938.689 446.25C938.895 442.863 941.023 438.457 937.599 435.927C934.689 433.777 931.908 435.764 929.819 438.138C925.413 443.145 923.33 448.567 915.231 447.891Z" fill="white"/>
<path d="M940.677 397.288C942.108 400.028 945.091 401.663 946.652 404.332C948.344 407.224 948.151 410.962 949.986 413.765C951.869 416.642 955.658 418.169 956.714 421.441C957.866 425.013 955.251 429.354 957.336 432.475C957.725 432.985 958.215 433.409 958.776 433.72C959.338 434.03 959.957 434.221 960.596 434.28C961.235 434.339 961.879 434.264 962.487 434.061C963.095 433.858 963.655 433.53 964.13 433.099C965.009 432.142 965.48 430.88 965.441 429.581C965.403 428.282 964.859 427.049 963.925 426.146C962.69 425.02 960.918 424.534 959.887 423.219C959.35 422.461 958.993 421.59 958.841 420.673C958.279 418.028 958.369 415.286 959.103 412.684C959.379 412.023 959.449 411.295 959.304 410.594C958.84 409.245 957.014 409.15 955.732 408.524C952.821 407.103 952.892 402.995 953.4 399.795C953.062 401.925 945.475 398.302 944.68 397.096C943.102 394.699 943.961 390.076 943.648 387.427C940.241 389.069 938.927 393.937 940.677 397.288Z" fill="white"/>
<path d="M864.24 439.449C862.839 437.882 860.73 436.242 858.853 437.187C857.42 437.908 857.026 439.89 857.588 441.393C858.272 442.852 859.325 444.107 860.643 445.035C864.555 448.261 868.768 451.174 872.182 454.925C878.29 461.637 881.526 470.695 888.169 476.879C889.504 478.313 891.272 479.27 893.203 479.603C895.138 479.783 897.312 478.545 897.534 476.614C897.717 475.023 896.608 473.599 895.525 472.42C892.944 469.614 890.119 467.03 887.683 464.097C886.558 462.97 885.851 461.494 885.678 459.911C885.666 458.332 887.106 456.679 888.636 457.07C886.775 456.594 885.395 453.494 882.664 452.911C880.382 452.424 879.83 453.837 877.113 452.672C871.932 450.45 867.868 443.511 864.24 439.449Z" fill="white"/>
<path d="M985.972 286.803C984.486 286.361 983.025 285.839 981.595 285.239C977.748 284.085 972.659 286.912 973.172 290.895C973.512 293.542 975.976 295.326 977.336 297.622C979.353 301.026 978.815 305.344 977.755 309.157C977.495 310.337 977 311.453 976.3 312.439C975.321 313.479 974.15 314.321 972.853 314.918C967.658 317.831 963.077 321.723 959.363 326.379C958.959 326.809 958.678 327.339 958.548 327.914C958.365 329.259 959.717 330.239 960.481 331.361C962.179 333.852 960.952 337.205 961.12 340.216C961.094 340.641 961.177 341.067 961.362 341.451C961.546 341.835 961.826 342.166 962.174 342.412C963.198 342.932 964.41 342.049 964.965 341.044C966.806 337.71 965.419 332.357 968.872 330.749C969.525 330.445 970.317 330.317 970.753 329.743C971.444 328.833 970.777 327.485 971.127 326.397C971.653 324.764 973.888 324.69 975.602 324.763C978.556 324.886 981.508 324.493 984.326 323.601C985.432 323.338 986.436 322.757 987.214 321.929C988.246 320.641 988.155 318.809 987.949 317.171C986.916 309.006 984.329 301.114 980.329 293.922C983.362 294.309 986.662 294.645 989.28 293.064C990.745 292.179 992.503 289.532 991.776 287.73C990.626 284.881 988.55 287.279 985.972 286.803Z" fill="white"/>
<path d="M597.123 331.709C597.486 333.656 597.843 335.706 597.205 337.581C596.567 339.456 594.56 341.022 592.664 340.448C591.194 340.002 590.344 338.523 589.3 337.395C583.491 331.125 570.387 334.755 566.799 326.998C565.335 323.832 566.33 320.039 565.331 316.697C564.701 314.765 563.447 313.098 561.767 311.956C560.086 310.814 558.074 310.263 556.046 310.389C554.197 310.656 552.396 311.194 550.703 311.984C539.359 316.527 527.449 319.506 515.302 320.838C512.993 320.979 510.71 321.395 508.499 322.076C503.512 323.884 500.104 328.508 497.678 333.227C495.253 337.946 493.462 343.054 490.211 347.246C486.793 351.652 482.005 354.738 477.538 358.075C475.817 359.184 474.384 360.686 473.357 362.456C472.389 364.445 472.443 366.757 472.518 368.967L473.431 395.811C473.549 399.264 473.696 402.84 475.242 405.93C477.171 409.788 480.983 412.315 483.628 415.724C486.327 419.227 487.733 423.554 487.608 427.974C487.551 429.751 487.375 431.853 488.759 432.969C489.601 433.515 490.586 433.799 491.589 433.783L527.901 436.755C534.288 437.278 541.367 438.138 545.537 443.004C547.506 445.301 549.087 448.604 552.101 448.85C553.394 448.956 554.653 448.425 555.946 448.323C559.209 448.064 562.076 450.541 563.885 453.269C566.623 457.426 567.866 462.392 567.409 467.349C567.112 470.461 566.148 473.486 565.94 476.605C565.148 488.473 575.209 498.784 575.404 510.676C575.519 517.672 572.198 524.207 568.96 530.41C574.186 538.325 569.907 548.866 571.987 558.121C573.961 566.9 581.281 573.773 583.105 582.585C583.94 586.619 583.989 591.584 587.546 593.661C589.107 594.422 590.837 594.769 592.571 594.667C603.027 594.791 613.364 592.438 622.736 587.8C627.134 585.617 631.693 582.359 632.461 577.509C633.081 573.598 631.097 569.223 633.116 565.816C635.495 561.801 641.589 562.119 645.089 559.032C650.768 554.024 646.34 544.472 648.641 537.259C650.709 530.774 657.828 527.33 661.357 521.51C662.746 519.007 663.742 516.306 664.312 513.501C665.929 506.797 666.935 499.961 667.319 493.075C667.413 488.891 667.721 484.715 668.243 480.564C672.048 456.926 695.416 441.098 703.003 418.39C703.728 416.221 704.068 413.332 702.139 412.105C700.994 411.559 699.697 411.423 698.464 411.721L681.726 413.831C679.646 414.093 677.443 414.338 675.533 413.475C673.624 412.611 672.255 410.196 673.268 408.361C676.111 403.211 670.263 396.704 667.665 391.426C660.668 377.216 652.336 363.703 642.78 351.07C642.169 350.42 641.786 349.588 641.689 348.701L646.44 348.859C644.836 343.105 642.19 336.808 636.6 334.703C633.449 333.516 629.961 333.927 626.6 334.11C616.972 334.636 606.651 333.183 597.123 331.709Z" fill="white"/>
<path d="M626.607 202.034C629.126 204.709 631.949 207.545 635.594 208.012C642.032 208.835 646.661 202.178 649.608 196.395C649.718 197.869 650.398 199.243 651.504 200.224C652.61 201.204 654.055 201.715 655.532 201.646C657.121 201.379 658.637 200.786 659.987 199.905C672.742 192.934 687.03 189.24 701.565 189.156C701.426 188.055 701.699 186.941 702.332 186.03C702.965 185.118 703.914 184.473 704.995 184.22C707.95 183.634 710.612 186.189 712.038 188.843C713.464 191.498 714.352 194.574 716.618 196.561C718.883 198.548 723.268 198.461 724.163 195.584C725.022 192.822 722.144 190.466 719.754 188.838C717.363 187.21 714.843 184.196 716.453 181.792C728.666 179.089 740.955 176.375 753.453 175.838C755.58 175.912 757.701 175.547 759.681 174.765C761.587 173.83 763.102 171.707 762.589 169.646C759.862 170.287 757.006 170.102 754.384 169.113C751.763 168.124 749.495 166.377 747.871 164.095C765.212 162.664 783.656 161.444 799.024 169.604C800.868 173.563 791.469 176.857 793.984 180.427C794.786 181.566 796.393 181.7 797.786 181.726C808.465 181.924 819.206 182.118 829.765 180.506C833.624 179.917 837.522 179.085 841.396 179.563C847.848 180.359 853.367 184.664 859.716 186.068C862.299 186.639 865.197 186.659 867.375 185.156C869.553 183.653 870.489 180.231 868.704 178.277C874.681 172.419 884.601 173.871 892.487 176.676C900.372 179.48 907.842 184.003 916.188 184.628C922.173 185.077 928.241 183.467 934.154 184.49C937.87 185.133 941.329 186.786 944.961 187.802C951.83 189.723 959.097 189.317 966.229 189.41C984.427 189.655 1002.43 193.231 1019.34 199.962C1021.53 200.678 1023.55 201.869 1025.24 203.45C1026.81 205.135 1027.61 207.753 1026.56 209.802L1009.08 207.249C1010.73 210.49 1014.99 211.042 1018.45 212.16C1021.91 213.278 1025.49 217.097 1023.41 220.079C1019.67 218.886 1016.27 222.633 1014.38 226.08C1012.48 229.528 1010.18 233.656 1006.25 233.866C1002.73 234.054 998.481 231.06 996.188 233.734C999.355 237.729 1002.07 242.064 1004.27 246.66C1006.54 251.378 1008.15 257.323 1005.09 261.568C1004.61 262.326 1003.88 262.893 1003.02 263.17C1000.52 263.803 998.9 260.745 997.108 258.891C994.849 256.555 991.432 255.894 988.373 254.798C985.313 253.703 982.091 251.548 981.851 248.307C981.702 246.291 982.767 244.417 983.551 242.553C984.869 239.412 985.445 236.009 985.235 232.609C985.064 229.874 984.297 227.029 982.332 225.118C980.368 223.207 976.977 222.6 974.868 224.351C973.884 225.168 973.095 226.474 971.817 226.523C969.559 226.609 967.826 222.673 966.009 224.017C966.223 225.448 965.926 226.909 965.171 228.144C959.75 232.859 951.423 230.864 944.434 232.53C941.111 233.481 937.93 234.87 934.974 236.661C933.868 237.134 932.927 237.924 932.27 238.931C931.397 240.626 932.359 242.797 933.897 243.924C935.527 244.924 937.36 245.55 939.261 245.756C947.781 247.369 956.424 249.867 963.151 255.339C969.877 260.811 974.288 269.857 972.159 278.263L955.358 262.209C955.996 268.949 956.359 275.709 956.445 282.486C956.553 283.81 956.372 285.141 955.912 286.387C954.714 289.032 951.468 289.922 948.624 290.506C947.832 290.657 947.082 290.973 946.422 291.434C945.761 291.894 945.206 292.49 944.792 293.181C944.378 293.872 944.115 294.642 944.02 295.442C943.925 296.242 944 297.052 944.241 297.821C945.252 301.115 947.772 303.684 950.079 306.243C952.386 308.802 954.657 311.711 954.959 315.143C955.261 318.576 952.672 322.445 949.234 322.206C946.628 322.025 944.695 319.693 943.583 317.329C942.472 314.965 941.81 312.331 940.14 310.323C935.085 304.243 923.731 306.848 919.203 300.367C918.048 301.676 917.248 303.259 916.877 304.965C916.507 306.67 916.578 308.442 917.085 310.113C919.192 308.794 922.076 310.019 923.659 311.936C925.241 313.852 925.988 316.309 927.231 318.461C928.908 321.365 931.578 323.94 931.812 327.286C931.75 328.551 931.771 329.819 931.876 331.081C932.292 333.108 934.005 334.564 935.193 336.258C937.957 340.201 937.821 345.617 936.039 350.091C934.257 354.564 931.056 358.302 927.886 361.926C922.348 368.256 916.697 374.549 910.132 379.806C908.259 381.306 906.26 382.781 905.093 384.878C903.926 386.975 903.866 389.919 905.659 391.514C904.376 391.578 902.076 392.209 900.793 392.273C900.342 387.127 900.244 381.956 900.499 376.796C895.437 374.365 889.986 380.875 890.639 386.453C891.292 392.031 895.327 396.507 898.199 401.333C900.3 404.862 901.861 408.977 901.159 413.023C900.458 417.07 896.846 420.803 892.755 420.446C886.247 419.878 883.525 410.536 877.081 409.467C876.512 409.333 875.916 409.393 875.385 409.635C874.428 410.16 874.262 411.44 874.208 412.53C873.944 417.879 873.716 423.441 875.804 428.373C878.859 435.588 886.751 441.647 885.095 449.305C876.177 445.16 871.541 435.159 869.436 425.553C867.33 415.947 866.98 405.862 863.206 396.781C860.34 400.454 854.317 397.417 851.699 393.564C849.217 389.911 847.689 385.686 845.281 381.984C842.873 378.282 839.184 374.967 834.772 374.763C830.146 374.55 826.135 377.724 822.607 380.723C819.706 383.189 816.728 385.753 815.032 389.162C812.564 394.123 813.21 399.971 813.091 405.51C812.962 411.499 811.693 417.817 807.612 422.202C803.53 426.586 795.996 428.113 791.494 424.161C789.144 422.099 788.006 419.017 786.992 416.058C782.106 401.798 778.037 387.271 774.804 372.547C774.048 375.908 771.097 380.239 768.278 378.26C767.645 377.728 767.133 377.067 766.774 376.322C761.516 367.41 751.778 362.065 741.939 358.859C732.101 355.654 721.749 354.159 712.019 350.637C706.567 348.662 701.359 346.068 696.498 342.905C695.259 344.726 694.535 346.847 694.404 349.046C694.273 351.244 694.738 353.437 695.752 355.392C697.91 359.213 702.794 361.425 706.975 360.089C709.135 359.399 710.96 357.899 713.104 357.158C715.247 356.417 718.124 356.781 719.062 358.846C719.959 360.823 718.603 363.215 719.276 365.279C720.3 368.422 725.042 368.665 726.7 371.525C727.933 373.654 726.918 376.48 725.157 378.198C723.396 379.915 721.046 380.857 718.896 382.053C711.919 385.932 706.958 392.554 700.862 397.707C694.765 402.859 686.163 406.62 678.897 403.316C680.629 394.545 670.182 388.107 668.26 379.376C667.627 376.503 667.955 373.45 667.052 370.65C665.745 366.595 662.148 363.808 659.197 360.735C655.618 356.968 652.829 352.522 650.996 347.66C649.163 342.797 648.322 337.617 648.524 332.425C648.683 328.817 649.346 325.15 648.524 321.633C647.702 318.116 644.79 314.712 641.182 314.871C632.941 315.235 622.559 315.848 618.235 308.823C616.692 306.316 616.021 302.643 618.252 300.723C619.826 299.367 622.149 299.495 624.216 299.698L642.784 301.525C647.127 301.952 651.822 302.305 655.548 300.034C659.275 297.764 660.89 291.737 657.439 289.066C654.918 287.115 650.4 287.22 649.667 284.117C649.057 281.533 651.918 278.601 650.373 276.441C649.265 274.892 646.774 275.322 645.265 276.483C643.756 277.644 642.661 279.341 640.972 280.22C638.009 281.762 634.469 280.295 631.281 279.297C628.093 278.3 623.82 278.215 622.274 281.176C620.544 284.487 623.807 288.826 622.091 292.144C619.822 296.531 612.139 294.034 608.952 297.807C605.296 302.137 611.44 308.593 610.207 314.124C608.633 314.904 606.883 315.262 605.129 315.164C603.375 315.065 601.677 314.513 600.2 313.562C598.747 312.574 597.589 311.211 596.85 309.617C596.11 308.023 595.816 306.259 595.999 304.512C596.304 302.023 597.602 299.483 596.732 297.132C596.03 295.231 594.121 294.099 592.347 293.119L574.302 283.147C572.627 286.255 574.745 290.108 577.394 292.442C580.043 294.776 583.36 296.534 585.1 299.606C586.201 301.735 586.448 304.203 585.79 306.507C585.133 308.811 583.62 310.777 581.562 312.004C581.304 312.182 581.011 312.302 580.702 312.356C580.393 312.41 580.076 312.396 579.773 312.316C579.485 312.147 579.234 311.922 579.035 311.654C578.836 311.386 578.692 311.081 578.613 310.756C575.43 302.609 570.65 294.576 563.007 290.32C555.365 286.064 544.384 286.939 539.373 294.108C538.183 295.811 537.384 297.752 536.347 299.553C530.838 309.118 519.027 313.648 507.993 313.352C506.914 313.412 505.84 313.159 504.9 312.625C503.117 311.393 503.197 308.78 503.47 306.63L504.628 297.505C504.861 295.673 505.198 293.648 506.648 292.504C508.692 290.892 511.641 291.909 514.244 291.872C516.217 291.78 518.113 291.083 519.676 289.877C521.239 288.671 522.393 287.013 522.982 285.128C523.508 283.225 523.505 281.215 522.973 279.314C522.44 277.412 521.399 275.693 519.962 274.339C518.769 273.218 517.167 271.811 517.797 270.3C518.049 269.882 518.389 269.524 518.793 269.252C519.198 268.98 519.657 268.799 520.139 268.723C524.815 267.365 529.756 267.009 534.354 265.407C538.952 263.805 543.411 260.527 544.5 255.781C544.834 254.326 544.986 252.565 546.292 251.844C546.948 251.567 547.652 251.423 548.363 251.42C550.856 251.066 553.126 249.791 554.726 247.846C556.326 245.902 557.14 243.429 557.008 240.915C559.211 239.375 562.299 240.508 564.431 242.145C566.562 243.783 568.445 245.947 571.039 246.653C575.873 247.968 580.544 243.688 585.554 243.668C587.661 243.66 589.842 244.405 591.824 243.691C593.833 242.967 595.033 240.966 596.576 239.489C598.118 238.011 600.824 237.11 602.248 238.702L601.035 229.72C603.477 230.337 606.023 230.424 608.501 229.976C610.98 229.528 613.334 228.554 615.406 227.121L599.734 221.826C599.188 221.69 598.684 221.421 598.268 221.043C597.129 219.816 598.26 217.904 599.187 216.509C601.403 213.173 601.775 207.677 598.131 206.016C595.643 204.882 592.787 206.243 590.399 207.574L578.96 213.952C578.597 216.127 581.256 217.359 582.903 218.823C583.9 219.71 584.606 220.876 584.927 222.171C585.249 223.465 585.171 224.827 584.705 226.076C584.239 227.326 583.405 228.405 582.314 229.172C581.223 229.939 579.926 230.359 578.592 230.375C579.345 231.354 579.869 232.491 580.123 233.7C580.378 234.908 580.358 236.159 580.063 237.359L572.367 237.913C571.503 238.086 570.606 237.911 569.871 237.425C569.048 236.694 569.16 235.413 568.969 234.329C568.508 231.712 565.946 229.878 563.331 229.408C560.716 228.937 558.04 229.54 555.451 230.136C554.351 230.531 553.143 230.503 552.063 230.057C551.444 229.655 550.973 229.061 550.723 228.366C549.588 225.613 550.649 222.378 552.472 220.023C554.296 217.669 556.792 215.948 559.034 213.989C564.395 209.285 568.334 203.176 570.405 196.351C574.642 194.576 579.028 192.164 583.265 190.389C589.797 187.082 597.122 185.663 604.416 186.291L618.764 186.565C623.012 186.646 627.375 186.75 631.303 188.369C635.231 189.989 638.683 193.492 638.954 197.732C639.036 198.212 638.994 198.705 638.833 199.164C638.672 199.624 638.397 200.035 638.034 200.359C637.479 200.662 636.851 200.804 636.22 200.768C632.258 200.907 630.569 201.894 626.607 202.034Z" fill="white"/>
<path d="M512.244 247.001C512.804 246.47 513.208 245.796 513.41 245.051C513.612 244.306 513.605 243.52 513.389 242.778C512.025 242.252 510.541 242.117 509.104 242.388C507.667 242.66 506.335 243.326 505.257 244.314C504.407 245.174 503.674 246.142 503.078 247.194C501.193 250.27 499.525 253.944 500.618 257.383C500.707 257.758 500.87 258.111 501.098 258.422C501.325 258.733 501.612 258.996 501.943 259.194C502.432 259.391 502.96 259.474 503.487 259.436C505.564 259.434 507.639 259.306 509.7 259.054C510.966 258.899 512.437 258.542 512.926 257.364C513.569 255.815 512.013 254.063 512.466 252.449C512.765 251.727 513.217 251.079 513.792 250.55C514.077 250.284 514.296 249.955 514.432 249.589C514.568 249.223 514.617 248.831 514.574 248.443C514.391 247.685 513.231 247.256 512.814 247.914" fill="white"/>
<path d="M523.014 233.038C521.169 232.614 519.267 232.495 517.383 232.684C516.967 232.672 516.554 232.766 516.184 232.957C515.825 233.221 515.565 233.598 515.444 234.027C515.046 235.304 515.144 236.684 515.718 237.892C516.292 239.1 517.3 240.048 518.541 240.546C519.218 240.702 519.866 240.962 520.462 241.318C522.054 242.553 521.039 245.079 521.34 247.072C521.679 249.31 523.845 251.188 523.448 253.417C523.135 255.172 521.26 256.562 521.562 258.32C521.878 260.16 524.214 260.713 526.076 260.861C527.155 261.05 528.265 260.922 529.274 260.494C530.284 259.803 531.003 258.762 531.291 257.572C532.053 255.304 532.374 252.91 532.235 250.52C532.226 249.434 531.954 248.365 531.44 247.408C530.879 246.649 530.257 245.938 529.581 245.28C526.014 241.131 529.77 234.942 523.014 233.038Z" fill="white"/>
<path d="M323.104 528.772C329.714 528.772 335.072 523.414 335.072 516.804C335.072 510.194 329.714 504.836 323.104 504.836C316.494 504.836 311.136 510.194 311.136 516.804C311.136 523.414 316.494 528.772 323.104 528.772Z" fill="#6C63FF"/>
<path opacity="0.8" d="M992.076 558.073C992.076 558.073 718.874 401.251 601.258 430.964C601.258 430.964 351.992 457.789 323.104 516.804C323.104 516.804 243.867 269.19 214.979 260.936" stroke="#6C63FF" stroke-width="2" stroke-miterlimit="10"/>
<path opacity="0.8" d="M323.104 516.804C368.912 394.648 781.603 259.285 781.603 259.285C723.001 274.142 601.257 430.964 601.257 430.964C601.257 430.964 343.738 243.603 214.979 260.936C214.979 260.936 782.016 279.507 992.076 558.073" stroke="#6C63FF" stroke-width="2" stroke-miterlimit="10"/>
<path d="M214.979 272.904C221.589 272.904 226.947 267.545 226.947 260.936C226.947 254.326 221.589 248.968 214.979 248.968C208.369 248.968 203.011 254.326 203.011 260.936C203.011 267.545 208.369 272.904 214.979 272.904Z" fill="#6C63FF"/>
<path d="M781.603 271.253C788.213 271.253 793.571 265.895 793.571 259.285C793.571 252.675 788.213 247.317 781.603 247.317C774.994 247.317 769.635 252.675 769.635 259.285C769.635 265.895 774.994 271.253 781.603 271.253Z" fill="#6C63FF"/>
<path d="M992.076 570.041C998.686 570.041 1004.04 564.683 1004.04 558.073C1004.04 551.463 998.686 546.105 992.076 546.105C985.466 546.105 980.108 551.463 980.108 558.073C980.108 564.683 985.466 570.041 992.076 570.041Z" fill="#6C63FF"/>
<path d="M601.258 442.932C607.867 442.932 613.226 437.574 613.226 430.964C613.226 424.355 607.867 418.996 601.258 418.996C594.648 418.996 589.289 424.355 589.289 430.964C589.289 437.574 594.648 442.932 601.258 442.932Z" fill="#6C63FF"/>
</svg>
