<svg width="25" height="25" viewBox="0 0 25 25" fill="none" xmlns="http://www.w3.org/2000/svg">
<g clip-path="url(#clip0)">
<path fill-rule="evenodd" clip-rule="evenodd" d="M17.5271 14.8532C17.2291 14.7042 15.7681 13.9862 15.4961 13.8862C15.2241 13.7872 15.0261 13.7382 14.8271 14.0362C14.6291 14.3322 14.0601 15.0022 13.8871 15.2002C13.7131 15.3992 13.5401 15.4232 13.2431 15.2752C12.9461 15.1252 11.9881 14.8122 10.8531 13.8002C9.97006 13.0122 9.37306 12.0392 9.20006 11.7412C9.02706 11.4442 9.18106 11.2832 9.33006 11.1352C9.46406 11.0022 9.62706 10.7882 9.77606 10.6152C9.92506 10.4412 9.97406 10.3172 10.0731 10.1182C10.1731 9.92023 10.1231 9.74723 10.0481 9.59823C9.97406 9.44923 9.38006 7.98623 9.13206 7.39123C8.89106 6.81223 8.64606 6.89123 8.46406 6.88123C8.29006 6.87323 8.09206 6.87123 7.89406 6.87123C7.69606 6.87123 7.37406 6.94523 7.10206 7.24323C6.82906 7.54023 6.06206 8.25923 6.06206 9.72223C6.06206 11.1842 7.12606 12.5972 7.27506 12.7962C7.42406 12.9942 9.37006 15.9962 12.3511 17.2832C13.0611 17.5892 13.6141 17.7722 14.0451 17.9082C14.7571 18.1352 15.4051 18.1032 15.9171 18.0262C16.4871 17.9412 17.6751 17.3072 17.9231 16.6132C18.1701 15.9192 18.1701 15.3242 18.0961 15.2002C18.0221 15.0762 17.8241 15.0022 17.5261 14.8532H17.5271ZM12.1051 22.2562H12.1011C10.3305 22.2566 8.59243 21.7806 7.06906 20.8782L6.70906 20.6642L2.96706 21.6462L3.96606 17.9982L3.73106 17.6242C2.7412 16.0486 2.21736 14.225 2.22006 12.3642C2.22206 6.91423 6.65606 2.48023 12.1091 2.48023C14.7491 2.48023 17.2311 3.51023 19.0971 5.37823C20.0174 6.29481 20.7469 7.3848 21.2433 8.58513C21.7397 9.78546 21.9932 11.0723 21.9891 12.3712C21.9871 17.8212 17.5531 22.2562 12.1051 22.2562V22.2562ZM20.5171 3.95923C19.4153 2.85016 18.1043 1.97077 16.6601 1.37203C15.216 0.773296 13.6674 0.467115 12.1041 0.471232C5.55006 0.471232 0.214061 5.80623 0.212061 12.3632C0.211061 14.4592 0.758061 16.5052 1.79906 18.3082L0.112061 24.4712L6.41606 22.8172C8.15993 23.7674 10.1142 24.2652 12.1001 24.2652H12.1051C18.6591 24.2652 23.9951 18.9302 23.9971 12.3722C24.0019 10.8095 23.6968 9.26133 23.0995 7.81727C22.5022 6.3732 21.6244 5.0619 20.5171 3.95923" fill="white"/>
</g>
<defs>
<clipPath id="clip0">
<rect width="24" height="24" fill="white" transform="translate(0.112061 0.471191)"/>
</clipPath>
</defs>
</svg>
