<svg width="225" height="188" viewBox="0 0 225 188" fill="none" xmlns="http://www.w3.org/2000/svg">
<path fill-rule="evenodd" clip-rule="evenodd" d="M4.56401 69.4525C10.1003 75.7748 18.8932 76.3947 24.8637 70.6922C75.5587 23.0889 149.159 23.0889 199.962 70.5681C206.041 76.2706 214.942 75.7748 220.479 69.4525C226.883 62.1384 226.45 49.9896 219.393 43.4194C157.409 -14.4731 67.7428 -14.4731 5.64957 43.4194C-1.40647 49.8657 -1.94925 62.0145 4.56401 69.4525ZM88.8023 165.65L104.76 183.874C108.994 188.709 115.832 188.709 120.066 183.874L136.024 165.65C141.126 159.825 140.04 149.783 133.527 145.94C120.283 138.13 104.434 138.13 91.082 145.94C84.8943 149.783 83.7002 159.825 88.8023 165.65ZM48.3115 119.411C53.6307 125.486 61.9894 126.106 68.1769 121.023C94.6643 99.5766 130.27 99.5766 156.757 121.023C162.945 125.981 171.304 125.486 176.623 119.411L176.731 119.287C183.245 111.849 182.811 99.2046 175.321 93.1301C137.977 62.2624 87.0654 62.2624 49.6142 93.1301C42.1239 99.3285 41.6897 111.849 48.3115 119.411Z" fill="white"/>
</svg>
